<svg xmlns="http://www.w3.org/2000/svg" viewBox="0 0 24 24"><path d="M17.3 7.3v1.3c0 .3-.2.5-.5.5h-1.3c-.3 0-.5-.2-.5-.5V7.3c0-.3.2-.5.5-.5h1.3c.2 0 .5.2.5.5zM12 14.7c1.5 0 2.7-1.2 2.7-2.7S13.5 9.3 12 9.3c-1.5 0-2.7 1.2-2.7 2.7s1.2 2.7 2.7 2.7zm4.3-3.3v.6c0 2.4-1.9 4.3-4.3 4.3S7.7 14.4 7.7 12v-.6c0-.2.1-.4.1-.6H6.7v5.9c0 .3.2.5.5.5h9.4c.3 0 .5-.2.5-.5v-5.9H16c.2.2.2.4.3.6zm7.7.6c0 6.6-5.4 12-12 12S0 18.6 0 12 5.4 0 12 0s12 5.4 12 12zm-5-5.4c0-.9-.7-1.6-1.6-1.6H6.6C5.7 5 5 5.7 5 6.6v10.8c0 .9.7 1.6 1.6 1.6h10.8c.9 0 1.6-.7 1.6-1.6V6.6z" fill="#fff"/></svg>